<svg width="115" height="26" viewBox="0 0 115 26" xmlns="http://www.w3.org/2000/svg">
    <g clip-path="url(#clip0_5009_498)">
        <path d="M114.361 22.7519C114.361 23.7455 114.041 24.5072 113.4 25.037C112.782 25.5448 112.076 25.7988 111.281 25.7988C110.486 25.7988 109.769 25.5448 109.128 25.037C108.51 24.5072 108.201 23.7455 108.201 22.7519C108.201 21.7584 108.51 21.0077 109.128 20.4999C109.769 19.97 110.486 19.7051 111.281 19.7051C112.076 19.7051 112.782 19.97 113.4 20.4999C114.041 21.0077 114.361 21.7584 114.361 22.7519Z" fill="#9FE870" />
        <path d="M97.0743 13.2476L100.519 7.94873H105.619L99.6575 16.3275C100.982 17.9834 102.186 19.5952 103.267 21.1627C104.349 22.7303 105.21 24.1323 105.851 25.3687H100.552C100.375 25.0375 100.154 24.6291 99.8894 24.1433C99.6244 23.6355 99.3264 23.1167 98.9952 22.5868C98.664 22.0348 98.3107 21.4939 97.9354 20.964C97.5821 20.4121 97.2289 19.9153 96.8756 19.4737C96.5444 19.8932 96.2022 20.3569 95.8489 20.8647C95.5178 21.3725 95.1976 21.8913 94.8885 22.4212C94.5794 22.929 94.2703 23.4368 93.9612 23.9446C93.6742 24.4524 93.4203 24.9271 93.1995 25.3687H88.1655C88.4305 24.8167 88.7948 24.1654 89.2584 23.4147C89.7221 22.6641 90.2189 21.8913 90.7487 21.0965C91.3007 20.2796 91.8748 19.4737 92.4709 18.6789C93.067 17.862 93.6521 17.1003 94.2262 16.3938C93.2326 15.0028 92.2391 13.6008 91.2455 12.1878C90.252 10.7527 89.2695 9.33968 88.298 7.94873H93.63L97.0743 13.2476Z" fill="white" />
        <path d="M84.479 25.3682H79.5444V7.94827H84.479V25.3682ZM84.9426 2.91436C84.9426 3.81958 84.6446 4.53714 84.0485 5.06702C83.4744 5.57483 82.79 5.82873 81.9951 5.82873C81.2003 5.82873 80.5048 5.57483 79.9087 5.06702C79.3346 4.53714 79.0476 3.81958 79.0476 2.91436C79.0476 2.00915 79.3346 1.30263 79.9087 0.794827C80.5048 0.264943 81.2003 0 81.9951 0C82.79 0 83.4744 0.264943 84.0485 0.794827C84.6446 1.30263 84.9426 2.00915 84.9426 2.91436Z" fill="white" />
        <path d="M59.0073 8.5448C59.8463 8.30194 60.9282 8.08115 62.2529 7.88245C63.5776 7.66166 64.9686 7.55127 66.4258 7.55127C67.9051 7.55127 69.1304 7.74998 70.1019 8.14739C71.0955 8.52272 71.8793 9.06365 72.4533 9.77016C73.0274 10.4767 73.4358 11.3157 73.6787 12.2871C73.9215 13.2586 74.043 14.3404 74.043 15.5327V25.3686H69.1084V16.1288C69.1084 14.5391 68.8986 13.4131 68.4791 12.7508C68.0596 12.0884 67.2758 11.7572 66.1277 11.7572C65.7745 11.7572 65.3991 11.7793 65.0017 11.8235C64.6043 11.8455 64.251 11.8787 63.9419 11.9228V25.3686H59.0073V8.5448Z" fill="white" />
        <path d="M54.1497 16.6254C54.1497 17.9942 53.951 19.2527 53.5536 20.4008C53.1561 21.5268 52.5821 22.4983 51.8314 23.3152C51.0807 24.11 50.1755 24.7282 49.1157 25.1698C48.078 25.6113 46.9078 25.8321 45.6052 25.8321C44.3246 25.8321 43.1545 25.6113 42.0947 25.1698C41.057 24.7282 40.1628 24.11 39.4121 23.3152C38.6614 22.4983 38.0763 21.5268 37.6568 20.4008C37.2373 19.2527 37.0276 17.9942 37.0276 16.6254C37.0276 15.2565 37.2373 14.0091 37.6568 12.8831C38.0984 11.7571 38.6945 10.7966 39.4452 10.0018C40.218 9.20699 41.1232 8.58879 42.1609 8.14722C43.2207 7.70565 44.3688 7.48486 45.6052 7.48486C46.8637 7.48486 48.0118 7.70565 49.0495 8.14722C50.1093 8.58879 51.0145 9.20699 51.7652 10.0018C52.5159 10.7966 53.1009 11.7571 53.5204 12.8831C53.9399 14.0091 54.1497 15.2565 54.1497 16.6254ZM49.1157 16.6254C49.1157 15.102 48.8066 13.9097 48.1884 13.0487C47.5923 12.1655 46.7312 11.7239 45.6052 11.7239C44.4792 11.7239 43.6071 12.1655 42.9889 13.0487C42.3707 13.9097 42.0616 15.102 42.0616 16.6254C42.0616 18.1488 42.3707 19.3631 42.9889 20.2683C43.6071 21.1515 44.4792 21.593 45.6052 21.593C46.7312 21.593 47.5923 21.1515 48.1884 20.2683C48.8066 19.3631 49.1157 18.1488 49.1157 16.6254Z" fill="white" />
        <path d="M33.6711 12.3203C33.2295 12.2099 32.7106 12.0995 32.1145 11.9891C31.5184 11.8567 30.8781 11.7904 30.1937 11.7904C29.8846 11.7904 29.5092 11.8235 29.0676 11.8898C28.6481 11.9339 28.328 11.9891 28.1072 12.0554V25.3687H23.1726V8.87607C24.0558 8.56697 25.0935 8.27994 26.2857 8.015C27.5 7.72798 28.8469 7.58447 30.3261 7.58447C30.5911 7.58447 30.9112 7.60655 31.2866 7.65071C31.6619 7.67279 32.0372 7.71694 32.4126 7.78318C32.7879 7.82734 33.1633 7.89357 33.5386 7.98188C33.9139 8.04812 34.2341 8.13644 34.499 8.24683L33.6711 12.3203Z" fill="white" />
        <path d="M11.4589 25.8323C7.72758 25.8323 4.87941 24.7947 2.9144 22.7193C0.971467 20.6439 0 17.6964 0 13.8768C0 11.9781 0.298064 10.2891 0.894191 8.8098C1.49032 7.30846 2.30723 6.04998 3.34494 5.03437C4.38264 3.99668 5.61905 3.2129 7.05417 2.68301C8.48929 2.15313 10.0458 1.88818 11.7238 1.88818C12.6953 1.88818 13.5785 1.96546 14.3733 2.12001C15.1681 2.25248 15.8636 2.41807 16.4597 2.61678C17.0559 2.7934 17.5526 2.98107 17.9501 3.17978C18.3475 3.37848 18.6345 3.53303 18.8111 3.64343L17.3208 7.81627C16.6143 7.44093 15.7863 7.12079 14.8369 6.85585C13.9096 6.59091 12.8499 6.45844 11.6576 6.45844C10.8628 6.45844 10.079 6.59091 9.30621 6.85585C8.55553 7.12079 7.88213 7.55132 7.286 8.14744C6.71195 8.72149 6.2483 9.47216 5.89504 10.3995C5.54178 11.3268 5.36515 12.4528 5.36515 13.7775C5.36515 14.8372 5.47554 15.8308 5.69633 16.7581C5.93919 17.6633 6.31453 18.4471 6.82235 19.1094C7.35224 19.7718 8.03668 20.3017 8.87567 20.6991C9.71467 21.0744 10.7303 21.2621 11.9225 21.2621C12.6732 21.2621 13.3466 21.2179 13.9428 21.1296C14.5389 21.0413 15.0688 20.9419 15.5324 20.8316C15.9961 20.6991 16.4045 20.5556 16.7578 20.401C17.1111 20.2465 17.4312 20.103 17.7182 19.9705L19.1423 24.1102C18.4137 24.5518 17.387 24.9492 16.0623 25.3025C14.7376 25.6557 13.2031 25.8323 11.4589 25.8323Z" fill="white" />
    </g>
</svg>